<?xml version="1.0" encoding="UTF-8"?>
<svg id="Capa_1" data-name="Capa 1" xmlns="http://www.w3.org/2000/svg" version="1.1" viewBox="0 0 512 512">
  <defs>
    <style>
      .cls-1 {
        fill: #020202;
      }

      .cls-1, .cls-2 {
        stroke-width: 0px;
      }

      .cls-2 {
        fill: #000;
      }
    </style>
  </defs>
  <path class="cls-1" d="M463.8,420V158.5H48.2v261.6c-18.7,6.3-32.1,23.9-32.1,44.7s21.1,47.1,47.1,47.1h385.6c26,0,47.1-21.1,47.1-47.2s-13.5-38.4-32.1-44.7h0ZM141,305.9c55.8,9.5,100,53.7,109.5,109.5-55.8-9.5-100-53.7-109.5-109.5ZM237.5,299.2c0-25.1,7.7-49,21.9-69,14.2,20,21.9,43.9,21.9,69s-7.7,49-21.9,69c-14.2-20-21.9-43.9-21.9-69ZM268.2,414c9.5-55.8,53.7-100,109.5-109.5-9.5,55.8-53.7,100-109.5,109.5Z"/>
  <path class="cls-2" d="M47.1,128.5h417.7c8.3,0,15-6.7,15-15v-34.3c0-8.3-6.7-15-15-15H47.1c-8.3,0-15,6.7-15,15v34.3c0,8.3,6.7,15,15,15Z"/>
  <path class="cls-2" d="M397.9,23.2C382.9,8.2,363,0,341.8,0h-171.7C149,0,129.1,8.2,114.1,23.2c-3.5,3.5-7.3,7.3-11.1,11.1h305.9c-3.8-3.8-7.6-7.5-11-11h0Z"/>
</svg>