<?xml version="1.0" encoding="UTF-8"?>
<!DOCTYPE svg PUBLIC "-//W3C//DTD SVG 1.1//EN" "http://www.w3.org/Graphics/SVG/1.1/DTD/svg11.dtd">
<!-- Creator: CorelDRAW -->
<svg xmlns="http://www.w3.org/2000/svg" xml:space="preserve" width="6.93056in" height="6.93056in" version="1.1" style="shape-rendering:geometricPrecision; text-rendering:geometricPrecision; image-rendering:optimizeQuality; fill-rule:evenodd; clip-rule:evenodd"
viewBox="0 0 3331.29 3331.29"
 xmlns:xlink="http://www.w3.org/1999/xlink"
 xmlns:xodm="http://www.corel.com/coreldraw/odm/2003">
 <defs>
  <style type="text/css">
   <![CDATA[
    .fil0 {fill:#606060;fill-rule:nonzero}
    .fil1 {fill:url(#id0)}
    .fil2 {fill:url(#id1)}
   ]]>
  </style>
  <linearGradient id="id0" gradientUnits="userSpaceOnUse" x1="1665.64" y1="3272.6" x2="1665.64" y2="1072.89">
   <stop offset="0" style="stop-opacity:1; stop-color:#00A955"/>
   <stop offset="1" style="stop-opacity:1; stop-color:#00703D"/>
  </linearGradient>
  <radialGradient id="id1" gradientUnits="userSpaceOnUse" gradientTransform="matrix(1.21289E-16 1.98079 1.98079 -1.21288E-16 1277 -3105)" cx="1666.98" cy="196.85" r="1199.57" fx="1666.98" fy="196.85">
   <stop offset="0" style="stop-opacity:1; stop-color:yellow"/>
   <stop offset="0.478431" style="stop-opacity:1; stop-color:#FFF100"/>
   <stop offset="1" style="stop-opacity:1; stop-color:#FFC500"/>
  </radialGradient>
 </defs>
 <g id="Capa_x0020_1">
  <metadata id="CorelCorpID_0Corel-Layer"/>
  <g id="_2181200923280">
   <path class="fil0" d="M913.19 1691.34c109.07,64.98 219.51,127.18 320.46,203.95 -23.58,-171.79 -161.6,-232.35 -320.46,-203.95zm488.4 453.88c139.09,-22.19 255.95,-133.64 332.9,-245.09 -134.67,38.69 -262.56,121.01 -332.9,245.09zm-501.96 -435.74c56.97,122.46 188.59,229.62 322.91,251.08 96.35,-34.31 -285.79,-227.28 -322.91,-251.08zm486.91 328.82c129.47,-64.6 266.46,-123.38 390.05,-195.17 -156.97,-44.81 -327,47.66 -390.05,195.17zm464.36 -780.21c-470.08,-0.79 -939.87,-0.01 -1409.91,-0.27 191.14,-226.85 400.81,-449.12 598.13,-674.33 8.83,-1.21 1365.02,-1.44 1377.24,-0.21 159.73,211.13 321.38,421.78 480.69,633.89 -129.98,8.13 -266.82,-1.78 -398.68,3.47 -11.46,406.48 17.55,823.33 -10.1,1225.21 -115.51,128.89 -230.72,258.04 -345.86,387.24 -5.51,7.4 -13.17,7.17 -21.5,6.77 -273.26,0 -546.52,0.01 -819.78,-0.03 -18.14,0 -13,1.6 -24.68,-9.91 -152.47,-151.73 -308.19,-300.92 -458.92,-453.94 166.13,-2.3 331.36,1.29 497.45,-0.97 -59.61,-119.35 -105.56,-257.34 -62.81,-389.67 -190.47,-21.24 -336.02,-170.03 -429.25,-328.52 78.46,-8.46 162.16,8.32 240.69,21.28 114.86,15.68 180.1,132.42 209.35,234.5 32.75,-138.21 98.72,-267.59 180,-383.94 18.14,62.48 -20.69,127.5 -40.73,186.03 -42.22,125.8 -104.84,249.23 -86.3,386.03 91.06,-247.6 242.12,-330.74 503.54,-293.27 -117.87,170.78 -273.21,350.06 -484.02,399.41 -1.68,59.44 22.74,120.63 57.17,168.39l446.72 0c4.45,-371.94 0.03,-744.85 1.54,-1117.15zm-184.26 1902.7c1959.8,-33.06 1968.99,-2950.61 3.18,-2990.5 -1971.04,31.78 -1965.85,2958.42 -3.18,2990.5zm-41.76 -3159.56c873.96,-35.4 1675.2,700.93 1702.57,1578.05 67.92,954.4 -777.28,1804.72 -1730.99,1749.45 -879.33,-23.11 -1620.39,-814.36 -1595.87,-1692.19 7.4,-867.71 754.21,-1625.93 1624.28,-1635.32z"/>
   <path class="fil1" d="M-0 1665.64c0,919.91 745.74,1665.64 1665.64,1665.64 919.91,0 1665.64,-745.74 1665.64,-1665.64 0,-919.91 -745.74,-1665.64 -1665.64,-1665.64 -919.91,0 -1665.64,745.74 -1665.64,1665.64z"/>
   <path class="fil2" d="M1630.29 167.97c-783.26,8.46 -1455.57,691.01 -1462.23,1472.15 -22.07,790.23 645.05,1502.54 1436.65,1523.34 858.56,49.76 1619.43,-715.73 1558.29,-1574.89 -24.08,-771.33 -712.89,-1421.72 -1478.18,-1421.7 -18.12,0 -36.34,0.37 -54.53,1.1zm40.45 152.19c1769.69,35.91 1761.42,2662.34 -2.86,2692.1 -1766.85,-28.87 -1771.53,-2663.5 2.86,-2692.1zm-567.77 371.97c-177.63,202.73 -366.38,402.82 -538.45,607.03 170.32,0.11 340.62,0.05 510.91,-0.01 252.75,-0.08 505.49,-0.17 758.33,0.25 -1.36,335.17 2.62,670.87 -1.39,1005.68l-402.14 0c-31,-43 -52.98,-98.09 -51.47,-151.59 189.78,-44.43 329.62,-205.82 435.72,-359.56 -235.34,-33.73 -371.33,41.12 -453.3,264.01 -16.69,-123.16 39.67,-234.26 77.69,-347.51 18.04,-52.69 53,-111.22 36.66,-167.47 -73.16,104.75 -132.55,221.22 -162.04,345.64 -26.32,-91.89 -85.06,-196.98 -188.46,-211.11 -70.7,-11.66 -146.05,-26.78 -216.69,-19.15 83.94,142.68 214.97,276.62 386.43,295.74 -38.49,119.13 2.88,243.36 56.54,350.79 -74.46,1.02 -148.74,0.72 -223.01,0.43 -74.86,-0.3 -149.74,-0.59 -224.81,0.45 135.69,137.74 275.88,272.05 413.13,408.64 10.51,10.36 5.89,8.92 22.22,8.92 246,0.03 492,0.03 738,0.03 7.5,0.35 14.39,0.56 19.35,-6.1 103.66,-116.31 207.37,-232.58 311.36,-348.61 24.89,-361.77 -1.22,-737.03 9.09,-1102.95 54.22,-2.16 109.37,-1.47 164.45,-0.78 65.5,0.82 130.89,1.64 194.46,-2.34 -143.41,-190.93 -288.94,-380.57 -432.73,-570.63 -5.01,-0.51 -260.23,-0.74 -537.8,-0.74 -332.79,0 -697.71,0.33 -702.04,0.93zm-113.36 997.31c143,-25.57 267.26,28.95 288.48,183.6 -90.87,-69.11 -190.28,-125.11 -288.48,-183.6zm-12.2 16.32c33.41,21.43 377.42,195.14 290.69,226.03 -120.92,-19.32 -239.41,-115.8 -290.69,-226.03zm789.47 120.31c-111.27,64.63 -234.58,117.54 -351.14,175.7 56.76,-132.79 209.82,-216.03 351.14,-175.7zm-37.91 51.32c-69.27,100.33 -174.47,200.66 -299.68,220.63 63.33,-111.69 178.45,-185.8 299.68,-220.63z"/>
  </g>
 </g>
</svg>
