<?xml version="1.0" encoding="UTF-8"?>
<!DOCTYPE svg PUBLIC "-//W3C//DTD SVG 1.1//EN" "http://www.w3.org/Graphics/SVG/1.1/DTD/svg11.dtd">
<!-- Creator: CorelDRAW -->
<svg xmlns="http://www.w3.org/2000/svg" xml:space="preserve" width="6.94446in" height="6.94446in" version="1.1" style="shape-rendering:geometricPrecision; text-rendering:geometricPrecision; image-rendering:optimizeQuality; fill-rule:evenodd; clip-rule:evenodd"
viewBox="0 0 6944.46 6944.46"
 xmlns:xlink="http://www.w3.org/1999/xlink"
 xmlns:xodm="http://www.corel.com/coreldraw/odm/2003">
 <defs>
  <style type="text/css">
   <![CDATA[
    .fil0 {fill:#FEFEFE;fill-rule:nonzero}
   ]]>
  </style>
 </defs>
 <g id="Capa_x0020_1">
  <metadata id="CorelCorpID_0Corel-Layer"/>
  <path class="fil0" d="M1904.65 3527.24c227.64,135.6 458.13,265.43 668.79,425.64 -49.2,-358.53 -337.26,-484.92 -668.79,-425.64zm1485.59 -3527.24l251.48 0c1723.31,68.85 3247.03,1547.44 3301.51,3293.37 0.52,7.25 0.76,14.47 1.22,21.71l0 405.66c-107.93,1689.72 -1553.12,3126.11 -3246.37,3223.72l-367.27 0 -0.18 -0.01c-1776.96,-46.69 -3283.31,-1596.39 -3330.64,-3357.79l0 -169.94c0.04,-1.28 0.02,-2.56 0.06,-3.83 15.44,-1810.92 1574.04,-3393.28 3389.89,-3412.88l0.3 -0.01zm-466.28 4474.48c290.28,-46.32 534.17,-278.9 694.76,-511.5 -281.05,80.74 -547.96,252.55 -694.76,511.5zm-1047.6 -909.39c118.89,255.56 393.57,479.21 673.91,524 201.08,-71.61 -596.44,-474.32 -673.91,-524zm1016.17 686.25c270.22,-134.83 556.11,-257.5 814.05,-407.33 -327.61,-93.51 -682.44,99.47 -814.05,407.33zm969.12 -1628.31c-981.05,-1.65 -1961.51,-0.01 -2942.5,-0.57 398.93,-473.43 836.5,-937.32 1248.32,-1407.31 18.41,-2.54 2848.8,-3.01 2874.32,-0.46 333.36,440.64 670.71,880.28 1003.19,1322.92 -271.28,16.94 -556.85,-3.72 -832.05,7.25 -23.92,848.32 36.63,1718.28 -21.07,2556.99 -241.08,268.98 -481.51,538.53 -721.82,808.18 -11.51,15.43 -27.48,14.96 -44.87,14.13 -570.29,0.02 -1140.6,0.03 -1710.89,-0.04 -37.86,-0.02 -27.14,3.32 -51.53,-20.71 -318.19,-316.64 -643.18,-628 -957.75,-947.35 346.69,-4.8 691.55,2.7 1038.16,-2.03 -124.4,-249.07 -220.29,-537.05 -131.07,-813.24 -397.5,-44.33 -701.28,-354.86 -895.85,-685.62 163.75,-17.68 338.43,17.37 502.33,44.4 239.72,32.74 375.87,276.36 436.92,489.4 68.36,-288.44 206.04,-558.46 375.67,-801.29 37.86,130.4 -43.18,266.1 -85,388.25 -88.11,262.54 -218.79,520.12 -180.11,805.64 190.04,-516.74 505.32,-690.25 1050.9,-612.05 -246,356.4 -570.19,730.57 -1010.14,833.57 -3.52,124.04 47.46,251.74 119.3,351.43l932.32 0c9.29,-776.22 0.04,-1554.47 3.2,-2331.49zm-384.55 3970.92c4090.12,-69 4109.3,-6157.89 6.63,-6241.12 -4113.57,66.32 -4102.73,6174.18 -6.63,6241.12z"/>
 </g>
</svg>
