<?xml version="1.0" ?>
<!DOCTYPE svg  PUBLIC '-//W3C//DTD SVG 1.1//EN'  'http://www.w3.org/Graphics/SVG/1.1/DTD/svg11.dtd'>
<!-- Uploaded to: SVG Repo, www.svgrepo.com, Generator: SVG Repo Mixer Tools -->
<svg fill="#000000" width="800px" height="800px" viewBox="0 0 50 50" enable-background="new 0 0 50 50" version="1.1" xml:space="preserve" xmlns="http://www.w3.org/2000/svg" xmlns:xlink="http://www.w3.org/1999/xlink">
<g id="Layer_23"/>
<g id="Layer_22"/>
<g id="Layer_21"/>
<g id="Layer_20"/>
<g id="Layer_19"/>
<g id="Layer_18"/>
<g id="Layer_17"/>
<g id="Layer_16"/>
<g id="Layer_15"/>
<g id="Layer_14"/>
<g id="Layer_13"/>
<g id="Layer_12"/>
<g id="Layer_11"/>
<g id="Layer_10"/>
<g id="Layer_9"/>
<g id="Layer_8"/>
<g id="Layer_7"/>
<g id="Layer_6"/>
<g id="Layer_5">
<path clip-rule="evenodd" d="M38.096,9.715c-4.233,4.812-8.109,9.131-11.271,14.829   c2.516,4.248,4.816,8.715,6.416,13.391L38.096,9.715z M25.027,28.433c-3.934-7.011-8.111-12.579-13.123-18.735l4.246,34.081   c0.595,7.069,11.432,8.754,15.935,1.701C29.987,39.243,28.322,34.307,25.027,28.433z M17.461,10.877   c2.628,3.232,5.04,6.77,7.279,10.278c2.066-3.451,4.472-6.692,7.092-9.753C30.968,7.466,28.63,1.463,24.585,0   C20.648,1.425,18.4,7.057,17.461,10.877z" fill-rule="evenodd"/>
</g>
<g id="Layer_4"/>
<g id="Layer_3"/>
<g id="Layer_2"/>
</svg>