<?xml version="1.0" encoding="UTF-8"?>
<svg id="glipy" xmlns="http://www.w3.org/2000/svg" version="1.1" viewBox="0 0 64 64">
  <defs>
    <style>
      .cls-1 {
        fill: #000;
        stroke-width: 0px;
      }
    </style>
  </defs>
  <path class="cls-1" d="M56,31.6c-.3-.8-1-1.4-1.8-1.5-1.5-.5-3.1,0-4.1,1.2l-7.3,10c-.2,2-1.9,3.5-3.9,3.6h-14c-.6,0-1-.5-1-1,0-.6.5-1,1-1h14c1.1,0,2-1,1.9-2.1.1-2.2-1.6-4.2-3.9-4.3h-3.5c0-.5,0-1,0-1.5-.3-7.7,1.5-12.3-7.2-17.1-.5-.3-.6-.9-.4-1.4.3-.5.9-.6,1.4-.4,4.5,2.8,6.3,4.5,7.7,8,.1.5.1.7.3,0,1-2.3,1.4-4.9,1.3-7.4-.7-9.1-16.4-8.2-21.9-12.4-.4-.4-1-.4-1.4,0-.2.2-.3.4-.3.6-.9,14,6,22.7,18.3,21.4.2,3,.2,7.2.2,10h-10.6c-3.7,0-7,2-8.9,5.2l-4,6.6,5.4,11.9,6.9-4c1.2-.8,2.4-1.3,3.8-1.6l14.3-1.8c1.9-.4,3.7-1.4,4.9-3l12.4-16.4c.4-.5.6-1.2.4-1.8Z"/>
  <path class="cls-1" d="M36.5,26.2c7.5.4,11.8-5.6,11.1-14.3,0-.6-.5-1-1.1-1-.2,0-.5.1-.6.3-.7.7-3,1.3-5.2,1.9-.9.3-1.9.5-2.8.8.3.8.5,1.6.6,2.4.3,4.2-.9,7.1-2,9.8Z"/>
</svg>