<?xml version="1.0" encoding="UTF-8"?>
<svg id="Capa_1" data-name="Capa 1" xmlns="http://www.w3.org/2000/svg" version="1.1" viewBox="0 0 512 512">
  <defs>
    <style>
      .cls-1 {
        fill: #000;
        stroke-width: 0px;
      }
    </style>
  </defs>
  <path class="cls-1" d="M207.1,68.2c17.3,5.8,35.2,8.8,53.5,8.8s26.6-1.6,39.6-4.8l38.3-9.3v-12C338.5,22.9,315.6,0,287.5,0H92.5C64.4,0,41.5,22.9,41.5,51v32.2l31.7-12.2c42.8-16.5,90.4-17.5,133.9-2.8h0Z"/>
  <path class="cls-1" d="M307.3,101.4c-15.3,3.7-31,5.6-46.7,5.6s-42.7-3.5-63.1-10.4c-36.9-12.4-77.2-11.6-113.5,2.4l-42.5,16.3v206.4c0,28.1,22.9,51,51,51h195c28.1,0,51-22.9,51-51V93.8l-31.2,7.6h0ZM88,215c47.4,8,84.9,45.6,93,93-47.4-8-84.9-45.6-93-93ZM169.9,209.3c0-21.3,6.5-41.6,18.6-58.6,12.1,17,18.6,37.3,18.6,58.6s-6.5,41.6-18.6,58.6c-12.1-17-18.6-37.3-18.6-58.6h0ZM196,306.8c8-47.4,45.6-84.9,93-93-8,47.4-45.6,84.9-93,93Z"/>
  <path class="cls-1" d="M455.5,156.3h-15v-47.1c0-8.3-6.7-15-15-15s-15,6.7-15,15v47.1h-15c-8.3,0-15,6.7-15,15v102.6c0,8.3,6.7,15,15,15h15v133.9c0,32.7-26.6,59.2-59.2,59.2h-87c-27.5,0-50.6-18.8-57.3-44.2h13.1c8.3,0,15-6.7,15-15v-20h-90v20c0,8.3,6.7,15,15,15h16.3c7.2,42.1,43.9,74.2,88,74.2h87c49.2,0,89.2-40,89.2-89.2v-133.9h15c8.3,0,15-6.7,15-15v-102.6c0-8.3-6.7-15-15-15h0Z"/>
</svg>